<?xml version="1.0" standalone="no"?><!DOCTYPE svg PUBLIC "-//W3C//DTD SVG 1.1//EN" "http://www.w3.org/Graphics/SVG/1.1/DTD/svg11.dtd"><svg t="1678351656184" class="icon" viewBox="0 0 1024 1024" version="1.1" xmlns="http://www.w3.org/2000/svg" p-id="4178" xmlns:xlink="http://www.w3.org/1999/xlink" width="200" height="200"><path d="M840.51491965 202.02394239l-19.48151603-19.48151604c-49.1751171-49.1751171-128.51516225-49.1751171-177.53317036-0.15710901l-52.00307912 52.00307911L788.51184055 431.24597383l52.0030791-52.0030791c49.01800811-48.8608991 49.01800811-128.35805326 0-177.21895234zM566.3597141 259.52583649C530.69597103 295.18957957 521.42654002 346.72133168 537.60876705 391.02606977l-0.157109 0.15710898-284.99572656 285.30994457c-5.49881501 5.49881501-5.49881501 14.61113702 0 20.26706105l27.49407505 27.49407505-64.57179914 64.57179914L233.91706944 807.36492059l64.41469013-64.41469014 27.49407506 27.49407508c2.82796201 2.82796201 6.28436002 4.08483399 10.05497602 4.08483399 4.08483399 0 7.54123201-1.25687199 10.36919402-4.08483399l142.34075427-142.34075431v213.66824043h65.98578015V561.96066209L631.40284023 485.29146996c44.46184709 16.33933604 96.15070819 6.91279601 131.81445127-28.75094707l0.78554499-0.785545L566.9881501 258.74029149l-0.628436 0.785545zM554.73364807 521.42654002l-65.98578011 65.98578012-152.70994831 152.70994831-53.4170601-53.57416911 268.34217254-268.34217253c4.39905201 6.59857803 9.58364903 12.88293803 15.39668201 18.85308005l19.48151604 19.48151603c5.81303301 5.81303301 12.09739302 10.84052103 18.53886204 15.23957304L554.73364807 521.42654002z" fill="#d81e06" p-id="4179"></path></svg>